PathFileType	4	(X/Y/Z)	/Users/itak/Documents/Research/Walk-IL/dataset/trc/00103_00007.trc
DataRate	CameraRate	NumFrames	NumMarkers	Units	OrigDataRate	OrigDataStartFrame	OrigNumFrames
100.000000	100.000000	4	53	mm	100.000000	211	563
Frame#	Time	RPSI			LPSI			L3			STRN			T10			C7			CLAV			RBAK			LBAK			LSHO			LUPA			LAEL			LAOL			LWTS			LWPS			LFRA			LIFD			LHPS			LHTS			RSHO			RUPA			RAEL			RAOL			RWTS			RWPS			RFRA			RIFD			RHTS			RHPS			RBHD			LFHD			RFHD			LBHD			LHIP			RHIP			RASI			LASI			LKNE			LTHI			LANK			LTIP			LTOE			LMT1			LMT5			LHEE			RKNE			RTHI			RANK			RTIP			RTOE			RMT1			RMT5			RHEE			
		X1	Y1	Z1	X2	Y2	Z2	X3	Y3	Z3	X4	Y4	Z4	X5	Y5	Z5	X6	Y6	Z6	X7	Y7	Z7	X8	Y8	Z8	X9	Y9	Z9	X10	Y10	Z10	X11	Y11	Z11	X12	Y12	Z12	X13	Y13	Z13	X14	Y14	Z14	X15	Y15	Z15	X16	Y16	Z16	X17	Y17	Z17	X18	Y18	Z18	X19	Y19	Z19	X20	Y20	Z20	X21	Y21	Z21	X22	Y22	Z22	X23	Y23	Z23	X24	Y24	Z24	X25	Y25	Z25	X26	Y26	Z26	X27	Y27	Z27	X28	Y28	Z28	X29	Y29	Z29	X30	Y30	Z30	X31	Y31	Z31	X32	Y32	Z32	X33	Y33	Z33	X34	Y34	Z34	X35	Y35	Z35	X36	Y36	Z36	X37	Y37	Z37	X38	Y38	Z38	X39	Y39	Z39	X40	Y40	Z40	X41	Y41	Z41	X42	Y42	Z42	X43	Y43	Z43	X44	Y44	Z44	X45	Y45	Z45	X46	Y46	Z46	X47	Y47	Z47	X48	Y48	Z48	X49	Y49	Z49	X50	Y50	Z50	X51	Y51	Z51	X52	Y52	Z52	X53	Y53	Z53	

212	2.11	-1756.612670898438	1104.499389648438	-242.2214813232422	-1759.892578125	1111.829467773438	-376.6776733398438	-1763.75244140625	1149.559204101562	-309.0196838378906	-1518.96875	1324.946166992188	-313.09326171875	-1775.494018554688	1304.044311523438	-300.2135314941406	-1702.798706054688	1589.751586914062	-321.7406311035156	-1535.640991210938	1463.118408203125	-321.00146484375	-1777.540649414062	1416.81884765625	-225.5088806152344	-1718.324951171875	1570.1357421875	-422.0454711914062	-1638.6318359375	1544.190063476562	-495.6467590332031	-1683.608764648438	1416.257446289062	-560.5549926757812	-1709.886840820312	1198.475830078125	-578.9883422851562	-1771.4169921875	1198.001098632812	-516.3834838867188	-1652.129516601562	927.931884765625	-539.4119262695312	-1738.748413085938	916.2723388671875	-559.0427856445312	-1714.414916992188	1081.417236328125	-582.1997680664062	-1673.71435546875	736.8280029296875	-511.3428344726562	-1723.080322265625	837.1585083007812	-560.0403442382812	-1653.81884765625	836.28125	-548.583984375	-1640.604614257812	1569.518310546875	-143.2409515380859	-1661.135375976562	1500.373413085938	-76.27413940429688	-1694.194702148438	1208.338623046875	-38.82810592651367	-1715.267333984375	1205.43798828125	-133.3967895507812	-1574.704345703125	953.2872924804688	-65.39116668701172	-1645.826538085938	943.7481689453125	-22.09525871276855	-1675.639526367188	1133.397827148438	-24.33644676208496	-1573.029052734375	756.1910400390625	-78.96601104736328	-1555.727172851562	841.6705932617188	-60.51555252075195	-1618.083740234375	841.2811279296875	-20.24796485900879	-1654.661010742188	1748.258056640625	-250.2849273681641	-1501.527465820312	1810.289672851562	-397.4450378417969	-1491.7236328125	1819.040771484375	-268.2973937988281	-1671.5009765625	1742.93408203125	-384.3928527832031	-1660.814453125	1028.264526367188	-491.9528503417969	-1640.02392578125	997.05517578125	-126.0936965942383	-1550.654296875	1066.74365234375	-173.9642944335938	-1558.215576171875	1080.870361328125	-439.9440307617188	-1447.648681640625	564.7103881835938	-464.8840026855469	-1533.420288085938	689.7588500976562	-492.5742492675781	-1426.242553710938	41.17192840576172	-456.2633666992188	-1483.696655273438	294.9012145996094	-486.3363647460938	-1209.295043945312	99.53324127197266	-419.0891723632812	-1277.642822265625	80.65116882324219	-378.5793762207031	-1306.3720703125	55.3431282043457	-488.3311767578125	-1489.032470703125	34.97021102905273	-388.1812438964844	-1707.082641601562	508.9914855957031	-182.8696441650391	-1642.4970703125	783.1680297851562	-144.3701019287109	-1915.244018554688	31.2520809173584	-210.4886016845703	-1758.86328125	379.7732543945312	-175.1092071533203	-1683.780151367188	41.85488510131836	-263.266357421875	-1744.039916992188	29.04569053649902	-303.5084533691406	-1781.849365234375	37.2924919128418	-187.6651000976562	-1974.24560546875	36.40303421020508	-258.044921875	
213	2.12	-1749.611328125	1103.235107421875	-242.9546203613281	-1752.576904296875	1110.68408203125	-377.4049987792969	-1756.542846679688	1148.331420898438	-309.7145690917969	-1511.883666992188	1323.583984375	-313.8195190429688	-1768.111694335938	1302.60693359375	-300.8271179199219	-1695.73388671875	1588.44287109375	-322.6031494140625	-1528.463256835938	1461.797485351562	-321.8515930175781	-1770.4228515625	1415.600708007812	-226.1016693115234	-1711.350952148438	1568.685546875	-422.8451843261719	-1631.765014648438	1542.64306640625	-496.5390319824219	-1677.048095703125	1414.709838867188	-561.23974609375	-1704.123168945312	1197.084228515625	-579.531982421875	-1765.392578125	1196.858154296875	-516.6570434570312	-1647.950073242188	926.108154296875	-540.2337646484375	-1734.743408203125	915.0883178710938	-559.6168823242188	-1709.341552734375	1080.06103515625	-582.747802734375	-1670.815673828125	735.1109008789062	-512.1555786132812	-1719.640380859375	835.8474731445312	-560.6903686523438	-1650.353393554688	834.4461059570312	-549.4558715820312	-1633.385986328125	1568.394653320312	-144.1494750976562	-1653.798950195312	1499.332275390625	-77.04309844970703	-1686.68115234375	1207.411010742188	-38.85479736328125	-1708.12841796875	1204.317504882812	-133.3455200195312	-1567.746215820312	952.130615234375	-65.35174560546875	-1638.684936523438	942.8302001953125	-21.68778228759766	-1668.18408203125	1132.50927734375	-24.28275299072266	-1566.544555664062	754.98583984375	-78.44875335693359	-1548.956909179688	840.4867553710938	-60.30408477783203	-1611.110229492188	840.3251342773438	-19.74202156066895	-1647.730712890625	1746.974609375	-251.3341674804688	-1494.651489257812	1809.008666992188	-398.5508422851562	-1484.853515625	1817.83642578125	-269.3953857421875	-1664.588989257812	1741.5673828125	-385.4423522949219	-1652.608154296875	1027.541748046875	-493.0451965332031	-1633.42333984375	995.5458374023438	-126.7977600097656	-1543.85986328125	1065.25390625	-174.5189819335938	-1550.98583984375	1079.6787109375	-440.6102294921875	-1443.25146484375	562.7351684570312	-465.7298278808594	-1528.524780273438	687.6874389648438	-493.6216125488281	-1408.91943359375	41.02681350708008	-457.7940673828125	-1472.777587890625	293.3724365234375	-487.8386840820312	-1192.991577148438	101.8023452758789	-417.6508178710938	-1261.721435546875	82.04133605957031	-378.2196044921875	-1288.831787109375	57.18172073364258	-488.4625244140625	-1472.3076171875	33.59653091430664	-390.4453125	-1702.875366210938	507.8822937011719	-183.6451568603516	-1636.776733398438	781.7758178710938	-145.3366088867188	-1915.075073242188	31.89204406738281	-210.6595458984375	-1755.665405273438	379.0466003417969	-175.8099517822266	-1683.460327148438	41.29600524902344	-263.591064453125	-1743.914794921875	28.8124885559082	-303.7606811523438	-1781.863037109375	37.27717208862305	-187.7736206054688	-1974.276245117188	37.65158081054688	-258.0868530273438	
214	2.13	-1742.488159179688	1101.95556640625	-243.8445129394531	-1745.057006835938	1109.532958984375	-378.2914733886719	-1749.171508789062	1147.108276367188	-310.561767578125	-1504.623291015625	1322.24560546875	-314.5613403320312	-1760.558715820312	1301.158325195312	-301.5765380859375	-1688.546142578125	1587.138305664062	-323.56689453125	-1521.136840820312	1460.51171875	-322.7239379882812	-1763.192016601562	1414.387084960938	-226.8178100585938	-1704.213256835938	1567.23779296875	-423.7522277832031	-1624.704345703125	1541.109375	-497.5089721679688	-1670.26806640625	1413.164428710938	-562.001953125	-1698.173461914062	1195.71044921875	-580.1401977539062	-1759.163452148438	1195.721801757812	-516.9835815429688	-1643.5205078125	924.3199462890625	-541.13671875	-1730.5009765625	913.926513671875	-560.22314453125	-1704.059204101562	1078.72607421875	-583.3594360351562	-1667.602294921875	733.4303588867188	-513.029296875	-1715.96826171875	834.5695190429688	-561.3836669921875	-1646.640502929688	832.6513061523438	-550.4044189453125	-1626.092163085938	1567.29638671875	-145.1347045898438	-1646.399291992188	1498.324096679688	-77.87693786621094	-1679.056274414062	1206.49560546875	-39.01090621948242	-1700.832763671875	1203.203735351562	-133.4272918701172	-1560.62890625	951.003662109375	-65.37183380126953	-1631.3984375	941.9369506835938	-21.37546920776367	-1660.599975585938	1131.638916015625	-24.34419822692871	-1559.875610351562	753.810791015625	-77.98712921142578	-1542.035888671875	839.3292846679688	-60.14723587036133	-1603.993530273438	839.4003295898438	-19.30637359619141	-1640.702514648438	1745.697143554688	-252.4692687988281	-1487.678466796875	1807.759155273438	-399.7252807617188	-1477.898681640625	1816.675415039062	-270.5596008300781	-1657.556762695312	1740.19873046875	-386.5824890136719	-1644.755004882812	1026.524658203125	-493.9874267578125	-1626.766479492188	994.0629272460938	-127.5616607666016	-1536.954345703125	1063.789428710938	-175.0866851806641	-1543.553833007812	1078.463500976562	-441.2825317382812	-1438.671508789062	560.6430053710938	-466.4869689941406	-1523.406860351562	685.5587158203125	-494.7716674804688	-1392.791137695312	40.99540328979492	-459.3494262695312	-1462.347778320312	291.9288330078125	-489.320068359375	-1177.816040039062	103.8606567382812	-416.3612976074219	-1246.9033203125	83.23760223388672	-377.9725036621094	-1272.52978515625	58.99295425415039	-488.6744384765625	-1456.737548828125	32.35511016845703	-392.71044921875	-1698.548828125	506.8233947753906	-184.4349822998047	-1630.959228515625	780.42236328125	-146.3134002685547	-1914.920532226562	32.6403923034668	-210.8050079345703	-1752.372680664062	378.3766784667969	-176.5194396972656	-1683.169677734375	40.77852630615234	-263.8658752441406	-1743.805053710938	28.61654472351074	-303.9695129394531	-1781.880004882812	37.27099990844727	-187.8780670166016	-1974.310791015625	39.09684371948242	-258.0870666503906	
215	2.14	-1735.241333007812	1100.678833007812	-244.9074401855469	-1737.3271484375	1108.38916015625	-379.3503112792969	-1741.642822265625	1145.903930664062	-311.5779113769531	-1497.206176757812	1320.945922851562	-315.3181457519531	-1752.85107421875	1299.723754882812	-302.4569702148438	-1681.23583984375	1585.853271484375	-324.6338195800781	-1513.67529296875	1459.275146484375	-323.6152648925781	-1755.854858398438	1413.195678710938	-227.6672821044922	-1696.91259765625	1565.808349609375	-424.7720947265625	-1617.445190429688	1539.6025390625	-498.5562438964844	-1663.269897460938	1411.635620117188	-562.8436889648438	-1692.019897460938	1194.367919921875	-580.8174438476562	-1752.726928710938	1194.604248046875	-517.3750610351562	-1638.82568359375	922.58203125	-542.1134033203125	-1725.994995117188	912.797607421875	-560.8780517578125	-1698.553344726562	1077.425415039062	-584.04150390625	-1664.082153320312	731.8079833984375	-513.9697875976562	-1712.032470703125	833.3375854492188	-562.1336669921875	-1642.656005859375	830.9143676757812	-551.41796875	-1618.728393554688	1566.2353515625	-146.1965026855469	-1638.947875976562	1497.360961914062	-78.77855682373047	-1671.342651367188	1205.604614257812	-39.3029899597168	-1693.394287109375	1202.110961914062	-133.6527252197266	-1553.354858398438	949.9287719726562	-65.45337677001953	-1623.975219726562	941.0827026367188	-21.16501617431641	-1652.907592773438	1130.798461914062	-24.52644348144531	-1553.00048828125	752.6888427734375	-77.58226013183594	-1534.951538085938	838.2217407226562	-60.03986358642578	-1596.7373046875	838.5238647460938	-18.94547080993652	-1633.578247070312	1744.438110351562	-253.6901702880859	-1480.610717773438	1806.559814453125	-400.9682922363281	-1470.86083984375	1815.57666015625	-271.7914733886719	-1650.406860351562	1738.84228515625	-387.8121337890625	-1637.188720703125	1025.234130859375	-494.8023376464844	-1620.039306640625	992.63818359375	-128.3739471435547	-1529.942260742188	1062.370971679688	-175.6670837402344	-1535.891235351562	1077.238159179688	-441.9466247558594	-1433.849731445312	558.4590454101562	-467.1621704101562	-1517.9853515625	683.400146484375	-496.0414733886719	-1378.066162109375	40.96573638916016	-460.8597412109375	-1452.484497070312	290.5299377441406	-490.7459411621094	-1163.918823242188	105.5513305664062	-415.3340759277344	-1233.322875976562	84.13196563720703	-377.8803100585938	-1257.694213867188	60.59444808959961	-488.9798889160156	-1442.504150390625	31.20462417602539	-394.865234375	-1694.094360351562	505.8411560058594	-185.2181701660156	-1625.037963867188	779.1441040039062	-147.2974700927734	-1914.776489257812	33.52798843383789	-210.9208679199219	-1748.98974609375	377.7880554199219	-177.2193908691406	-1682.90380859375	40.29828262329102	-264.0846862792969	-1743.708740234375	28.45518493652344	-304.1274108886719	-1781.884643554688	37.27265930175781	-187.9727020263672	-1974.333984375	40.7495231628418	-258.0536193847656	
